<svg xmlns="http://www.w3.org/2000/svg" style="display: none;">
    <symbol id="icon-search" viewBox="0 0 16 16" fill="currentColor">
        <path d="M11.742 10.344a6.5 6.5 0 1 0-1.397 1.398h-.001q.044.06.098.115l3.85 3.85a1 1 0 0 0 1.415-1.414l-3.85-3.85a1 1 0 0 0-.115-.1zM12 6.5a5.5 5.5 0 1 1-11 0 5.5 5.5 0 0 1 11 0"/>
    </symbol>
    <symbol id="icon-person-fill" viewBox="0 0 16 16" fill="currentColor">
        <path d="M3 14s-1 0-1-1 1-4 6-4 6 3 6 4-1 1-1 1zm5-6a3 3 0 1 0 0-6 3 3 0 0 0 0 6"/>
    </symbol>
</svg>
